# xmcd
#
# Track frame offsets:
#	182
#	15562
#	29935
#	43885
#	58135
#	67310
#	81375
#	97162
#	113227
#	125305
#	141145
#	155030
#	169070
#	188217
#
# Disc length: 2695 seconds
#
# Revision: 1
# Processed by: cddbd v1.5.1PL2 Copyright (c) Steve Scherf et al.
# Submitted via: EasyCDDAExtractor 9.0.0.1
#
DISCID=d70a850e
DTITLE=Various Artist - bambole e giovanotti
DYEAR=1900
DGENRE=Blues
TTITLE0=D.Modugno (garinei-giovannini and modugno) - Tre briganti e tre somari
TTITLE1=E.Giusti (bertolazzi and testa) - Baciami cherie
TTITLE2=C.Dapporto (taccani and testoni and galdieri) - Signorino snob
TTITLE3=W.Osiris (bertini and ravasini) - Wanda
TTITLE4=Milly (valente and di napoli) - Bambola
TTITLE5=R.Rascel (rascel) - E' arrivata la bufera
TTITLE6=G.Kramer (garinei-giovannini and kramer) - Quanto e buono il cacio con l
TTITLE6=e pere
TTITLE7=W.Osiris (bracchi and d'anzi) - Femmine
TTITLE8=R.Alda (garinei-giovannini and kramer) - O baby kiss me
TTITLE9=S.Loren (vatro and giordano) - mambo bacan
TTITLE10=O.Spadaro (benatzky and ramo) - Se fossi un indovino
TTITLE11=Trio Lescano (rizzo and macario and frustaci) - Camminando sotto la piogg
TTITLE11=ia
TTITLE12=G.Galli (lehar) - Laggiu' sotto l'alcova
TTITLE13=Robertino (giuliani and dapporto) - La camera vicina
EXTD=
EXTT0=
EXTT1=
EXTT2=
EXTT3=
EXTT4=
EXTT5=
EXTT6=
EXTT7=
EXTT8=
EXTT9=
EXTT10=
EXTT11=
EXTT12=
EXTT13=
PLAYORDER=
